<?xml version="1.0" encoding="UTF-8"?>
<svg xmlns="http://www.w3.org/2000/svg" xmlns:xlink="http://www.w3.org/1999/xlink" version="1.1" viewBox="0 0 915.4 120">
  <defs>
    <style>
      .cls-1, .cls-2, .cls-3 {
        fill: #fff;
      }

      .cls-4 {
        fill: #1d1d1b;
      }

      .cls-4, .cls-5 {
        display: none;
      }

      .cls-2 {
        opacity: .2;
      }

      .cls-2, .cls-3 {
        isolation: isolate;
      }

      .cls-3 {
        opacity: .5;
      }
    </style>
  </defs>
  <!-- Generator: Adobe Illustrator 28.7.1, SVG Export Plug-In . SVG Version: 1.2.0 Build 142)  -->
  <g>
    <g id="Calque_1">
      <rect class="cls-4" width="915.4" height="207.5"/>
      <g id="_x33_VN4tE.tif" class="cls-5">
        <image id="Layer_0" width="1270" height="928" transform="translate(-113.4 -314.1) scale(1)" xlink:href="wave-1.png"/>
      </g>
      <path class="cls-2" d="M915.4,119V46.8c-164.7,68.9-279.3,59.8-354.4,37.8C460.2,55,426.4.9,326.5,7.3c-62.5,4-93.4,20.5-211.2,46.9C60.9,66.4,33.2,86.9,0,66.5v52.5h915.4Z"/>
      <path class="cls-3" d="M489.1,46.3c-90.6,0-206.6,25.6-247.6,33.4C184.7,90.5,103.2,101,0,97.5v21.4h915.4v-51.5c-42.8,7.2-107.5,19.2-190.6,15.1-134.7-6.6-122.8-36.4-235.7-36.3Z"/>
      <path class="cls-1" d="M0,4.6v115.4s915.4,0,915.4,0c0-24.4,0,8.2,0-16.2-101,22.7-217.2,17.4-408.2-30.6S142.9,0,0,4.6Z"/>
    </g>
  </g>
</svg>